<mxfile host="app.diagrams.net" modified="2023-05-02T01:32:16.177Z" agent="Mozilla/5.0 (X11; Linux x86_64; rv:109.0) Gecko/20100101 Firefox/112.0" etag="VlEwjq0zSfhUXRJAGo-s" version="21.2.3" type="google">
  <diagram name="Página-1" id="ghs-aFAq-vyusEt5Tt16">
    <mxGraphModel grid="1" page="1" gridSize="10" guides="1" tooltips="1" connect="1" arrows="1" fold="1" pageScale="1" pageWidth="827" pageHeight="1169" math="0" shadow="0">
      <root>
        <mxCell id="0" />
        <mxCell id="1" parent="0" />
        <mxCell id="1km-yz8pUTd3LIeD8Hyq-29" value="&lt;font style=&quot;font-size: 18px;&quot;&gt;Classes de Modelo&lt;br&gt;&lt;/font&gt;" style="text;html=1;strokeColor=none;fillColor=none;align=center;verticalAlign=middle;whiteSpace=wrap;rounded=0;fillStyle=cross-hatch;" vertex="1" parent="1">
          <mxGeometry x="249" y="500" width="330" height="30" as="geometry" />
        </mxCell>
        <mxCell id="1km-yz8pUTd3LIeD8Hyq-30" value="" style="rounded=0;whiteSpace=wrap;html=1;fillColor=none;" vertex="1" parent="1">
          <mxGeometry x="330" y="500" width="170" height="30" as="geometry" />
        </mxCell>
        <mxCell id="1km-yz8pUTd3LIeD8Hyq-31" value="" style="rounded=1;whiteSpace=wrap;html=1;fillColor=none;" vertex="1" parent="1">
          <mxGeometry x="10" y="530" width="810" height="610" as="geometry" />
        </mxCell>
        <mxCell id="1km-yz8pUTd3LIeD8Hyq-27" value="&lt;font style=&quot;font-size: 18px;&quot;&gt;Classes de interface de usuáriro&lt;/font&gt;" style="text;html=1;strokeColor=none;fillColor=none;align=center;verticalAlign=middle;whiteSpace=wrap;rounded=0;fillStyle=cross-hatch;" vertex="1" parent="1">
          <mxGeometry x="249" y="110" width="330" height="30" as="geometry" />
        </mxCell>
        <mxCell id="1km-yz8pUTd3LIeD8Hyq-28" value="" style="rounded=0;whiteSpace=wrap;html=1;fillColor=none;" vertex="1" parent="1">
          <mxGeometry x="272" y="110" width="280" height="30" as="geometry" />
        </mxCell>
        <mxCell id="1km-yz8pUTd3LIeD8Hyq-25" value="" style="rounded=1;whiteSpace=wrap;html=1;fillColor=none;" vertex="1" parent="1">
          <mxGeometry x="9" y="140" width="810" height="330" as="geometry" />
        </mxCell>
        <mxCell id="1km-yz8pUTd3LIeD8Hyq-1" value="&lt;font style=&quot;font-size: 28px;&quot;&gt;Classes tela de login&lt;/font&gt;" style="text;html=1;strokeColor=none;fillColor=none;align=center;verticalAlign=middle;whiteSpace=wrap;rounded=0;" vertex="1" parent="1">
          <mxGeometry x="264" y="40" width="300" height="30" as="geometry" />
        </mxCell>
        <mxCell id="1km-yz8pUTd3LIeD8Hyq-2" value="LoginScreen.kt" style="swimlane;fontStyle=1;align=center;verticalAlign=top;childLayout=stackLayout;horizontal=1;startSize=26;horizontalStack=0;resizeParent=1;resizeParentMax=0;resizeLast=0;collapsible=1;marginBottom=0;whiteSpace=wrap;html=1;" vertex="1" parent="1">
          <mxGeometry x="24.5" y="170" width="250" height="216" as="geometry" />
        </mxCell>
        <mxCell id="1km-yz8pUTd3LIeD8Hyq-4" value="" style="line;strokeWidth=1;fillColor=none;align=left;verticalAlign=middle;spacingTop=-1;spacingLeft=3;spacingRight=3;rotatable=0;labelPosition=right;points=[];portConstraint=eastwest;strokeColor=inherit;" vertex="1" parent="1km-yz8pUTd3LIeD8Hyq-2">
          <mxGeometry y="26" width="250" height="8" as="geometry" />
        </mxCell>
        <mxCell id="1km-yz8pUTd3LIeD8Hyq-14" value="+ ShowLogo(): Unit" style="text;strokeColor=none;fillColor=none;align=left;verticalAlign=top;spacingLeft=4;spacingRight=4;overflow=hidden;rotatable=0;points=[[0,0.5],[1,0.5]];portConstraint=eastwest;whiteSpace=wrap;html=1;" vertex="1" parent="1km-yz8pUTd3LIeD8Hyq-2">
          <mxGeometry y="34" width="250" height="26" as="geometry" />
        </mxCell>
        <mxCell id="1km-yz8pUTd3LIeD8Hyq-5" value="+ LoginInput(): Unit" style="text;strokeColor=none;fillColor=none;align=left;verticalAlign=top;spacingLeft=4;spacingRight=4;overflow=hidden;rotatable=0;points=[[0,0.5],[1,0.5]];portConstraint=eastwest;whiteSpace=wrap;html=1;" vertex="1" parent="1km-yz8pUTd3LIeD8Hyq-2">
          <mxGeometry y="60" width="250" height="26" as="geometry" />
        </mxCell>
        <mxCell id="1km-yz8pUTd3LIeD8Hyq-15" value="&lt;div&gt;+ BottomButtons(&lt;/div&gt;&lt;div&gt;&lt;span style=&quot;white-space: pre;&quot;&gt;	&lt;/span&gt;&lt;span style=&quot;&quot;&gt;	&lt;/span&gt;@StringRes topButtonText: Int,&lt;/div&gt;&lt;div&gt;&lt;span style=&quot;&quot;&gt;	&lt;/span&gt;&lt;span style=&quot;white-space: pre;&quot;&gt;	&lt;/span&gt;@StringRes bottomButtonText: Int,&lt;br&gt;&lt;/div&gt;&lt;div&gt;&amp;nbsp;Int): Unit&lt;/div&gt;" style="text;strokeColor=none;fillColor=none;align=left;verticalAlign=top;spacingLeft=4;spacingRight=4;overflow=hidden;rotatable=0;points=[[0,0.5],[1,0.5]];portConstraint=eastwest;whiteSpace=wrap;html=1;" vertex="1" parent="1km-yz8pUTd3LIeD8Hyq-2">
          <mxGeometry y="86" width="250" height="70" as="geometry" />
        </mxCell>
        <mxCell id="1km-yz8pUTd3LIeD8Hyq-17" value="&lt;div&gt;+ RegisterClickableText(&lt;/div&gt;&lt;div&gt;&lt;span style=&quot;white-space: pre;&quot;&gt;	&lt;/span&gt;@StringRes clickableText): Unit&lt;/div&gt;" style="text;strokeColor=none;fillColor=none;align=left;verticalAlign=top;spacingLeft=4;spacingRight=4;overflow=hidden;rotatable=0;points=[[0,0.5],[1,0.5]];portConstraint=eastwest;whiteSpace=wrap;html=1;" vertex="1" parent="1km-yz8pUTd3LIeD8Hyq-2">
          <mxGeometry y="156" width="250" height="34" as="geometry" />
        </mxCell>
        <mxCell id="1km-yz8pUTd3LIeD8Hyq-19" value="&lt;div&gt;+ CreateLoginScreen(): Unit&lt;/div&gt;" style="text;strokeColor=none;fillColor=none;align=left;verticalAlign=top;spacingLeft=4;spacingRight=4;overflow=hidden;rotatable=0;points=[[0,0.5],[1,0.5]];portConstraint=eastwest;whiteSpace=wrap;html=1;" vertex="1" parent="1km-yz8pUTd3LIeD8Hyq-2">
          <mxGeometry y="190" width="250" height="26" as="geometry" />
        </mxCell>
        <mxCell id="1km-yz8pUTd3LIeD8Hyq-6" value="PasswordRecoveryScreen.kt" style="swimlane;fontStyle=1;align=center;verticalAlign=top;childLayout=stackLayout;horizontal=1;startSize=26;horizontalStack=0;resizeParent=1;resizeParentMax=0;resizeLast=0;collapsible=1;marginBottom=0;whiteSpace=wrap;html=1;" vertex="1" parent="1">
          <mxGeometry x="325.5" y="170" width="240" height="166" as="geometry" />
        </mxCell>
        <mxCell id="1km-yz8pUTd3LIeD8Hyq-8" value="" style="line;strokeWidth=1;fillColor=none;align=left;verticalAlign=middle;spacingTop=-1;spacingLeft=3;spacingRight=3;rotatable=0;labelPosition=right;points=[];portConstraint=eastwest;strokeColor=inherit;" vertex="1" parent="1km-yz8pUTd3LIeD8Hyq-6">
          <mxGeometry y="26" width="240" height="8" as="geometry" />
        </mxCell>
        <mxCell id="1km-yz8pUTd3LIeD8Hyq-9" value="&lt;div&gt;+ PasswordRecoveryInfo(&lt;/div&gt;&lt;div&gt;&lt;span style=&quot;white-space: pre;&quot;&gt;	&lt;/span&gt;@StringRes title: Int,&lt;/div&gt;&lt;div&gt;&lt;span style=&quot;white-space: pre;&quot;&gt;	&lt;/span&gt;@StringRes text: Int,&lt;/div&gt;&lt;div&gt;&lt;span style=&quot;white-space: pre;&quot;&gt;	&lt;/span&gt;@StringRes textFieldHint: Int,&lt;/div&gt;&lt;div&gt;&lt;span style=&quot;white-space: pre;&quot;&gt;	&lt;/span&gt;@String Res iconContentDescription: Int): Unit&lt;/div&gt;" style="text;strokeColor=none;fillColor=none;align=left;verticalAlign=top;spacingLeft=4;spacingRight=4;overflow=hidden;rotatable=0;points=[[0,0.5],[1,0.5]];portConstraint=eastwest;whiteSpace=wrap;html=1;" vertex="1" parent="1km-yz8pUTd3LIeD8Hyq-6">
          <mxGeometry y="34" width="240" height="106" as="geometry" />
        </mxCell>
        <mxCell id="1km-yz8pUTd3LIeD8Hyq-20" value="&lt;div&gt;+ CreatePasswordRecoveryScreen(): Unit&lt;/div&gt;" style="text;strokeColor=none;fillColor=none;align=left;verticalAlign=top;spacingLeft=4;spacingRight=4;overflow=hidden;rotatable=0;points=[[0,0.5],[1,0.5]];portConstraint=eastwest;whiteSpace=wrap;html=1;" vertex="1" parent="1km-yz8pUTd3LIeD8Hyq-6">
          <mxGeometry y="140" width="240" height="26" as="geometry" />
        </mxCell>
        <mxCell id="1km-yz8pUTd3LIeD8Hyq-10" value="CreateUserScreen.kt" style="swimlane;fontStyle=1;align=center;verticalAlign=top;childLayout=stackLayout;horizontal=1;startSize=26;horizontalStack=0;resizeParent=1;resizeParentMax=0;resizeLast=0;collapsible=1;marginBottom=0;whiteSpace=wrap;html=1;" vertex="1" parent="1">
          <mxGeometry x="614.5" y="170" width="189" height="112" as="geometry" />
        </mxCell>
        <mxCell id="1km-yz8pUTd3LIeD8Hyq-12" value="" style="line;strokeWidth=1;fillColor=none;align=left;verticalAlign=middle;spacingTop=-1;spacingLeft=3;spacingRight=3;rotatable=0;labelPosition=right;points=[];portConstraint=eastwest;strokeColor=inherit;" vertex="1" parent="1km-yz8pUTd3LIeD8Hyq-10">
          <mxGeometry y="26" width="189" height="8" as="geometry" />
        </mxCell>
        <mxCell id="1km-yz8pUTd3LIeD8Hyq-13" value="+ CreateUserAccount(): Unit" style="text;strokeColor=none;fillColor=none;align=left;verticalAlign=top;spacingLeft=4;spacingRight=4;overflow=hidden;rotatable=0;points=[[0,0.5],[1,0.5]];portConstraint=eastwest;whiteSpace=wrap;html=1;" vertex="1" parent="1km-yz8pUTd3LIeD8Hyq-10">
          <mxGeometry y="34" width="189" height="26" as="geometry" />
        </mxCell>
        <mxCell id="1km-yz8pUTd3LIeD8Hyq-24" value="+ AccountTypeButtons(): Unit" style="text;strokeColor=none;fillColor=none;align=left;verticalAlign=top;spacingLeft=4;spacingRight=4;overflow=hidden;rotatable=0;points=[[0,0.5],[1,0.5]];portConstraint=eastwest;whiteSpace=wrap;html=1;" vertex="1" parent="1km-yz8pUTd3LIeD8Hyq-10">
          <mxGeometry y="60" width="189" height="26" as="geometry" />
        </mxCell>
        <mxCell id="1km-yz8pUTd3LIeD8Hyq-21" value="&lt;div&gt;+ CreateNewUserScreen(): Unit&lt;/div&gt;" style="text;strokeColor=none;fillColor=none;align=left;verticalAlign=top;spacingLeft=4;spacingRight=4;overflow=hidden;rotatable=0;points=[[0,0.5],[1,0.5]];portConstraint=eastwest;whiteSpace=wrap;html=1;" vertex="1" parent="1km-yz8pUTd3LIeD8Hyq-10">
          <mxGeometry y="86" width="189" height="26" as="geometry" />
        </mxCell>
        <mxCell id="1km-yz8pUTd3LIeD8Hyq-18" value="&lt;div style=&quot;font-size: 18px;&quot;&gt;&lt;font style=&quot;font-size: 18px;&quot;&gt;V 0.1&lt;/font&gt;&lt;/div&gt;" style="text;html=1;strokeColor=none;fillColor=none;align=center;verticalAlign=middle;whiteSpace=wrap;rounded=0;" vertex="1" parent="1">
          <mxGeometry x="384" y="70" width="60" height="30" as="geometry" />
        </mxCell>
        <mxCell id="1km-yz8pUTd3LIeD8Hyq-33" value="Validation" style="swimlane;fontStyle=1;align=center;verticalAlign=top;childLayout=stackLayout;horizontal=1;startSize=26;horizontalStack=0;resizeParent=1;resizeParentMax=0;resizeLast=0;collapsible=1;marginBottom=0;whiteSpace=wrap;html=1;" vertex="1" parent="1">
          <mxGeometry x="300" y="540" width="230" height="164" as="geometry" />
        </mxCell>
        <mxCell id="1km-yz8pUTd3LIeD8Hyq-34" value="- allowedChars: String[]" style="text;strokeColor=none;fillColor=none;align=left;verticalAlign=top;spacingLeft=4;spacingRight=4;overflow=hidden;rotatable=0;points=[[0,0.5],[1,0.5]];portConstraint=eastwest;whiteSpace=wrap;html=1;" vertex="1" parent="1km-yz8pUTd3LIeD8Hyq-33">
          <mxGeometry y="26" width="230" height="26" as="geometry" />
        </mxCell>
        <mxCell id="1km-yz8pUTd3LIeD8Hyq-37" value="- allowedSpecialChars: String[]" style="text;strokeColor=none;fillColor=none;align=left;verticalAlign=top;spacingLeft=4;spacingRight=4;overflow=hidden;rotatable=0;points=[[0,0.5],[1,0.5]];portConstraint=eastwest;whiteSpace=wrap;html=1;" vertex="1" parent="1km-yz8pUTd3LIeD8Hyq-33">
          <mxGeometry y="52" width="230" height="26" as="geometry" />
        </mxCell>
        <mxCell id="1km-yz8pUTd3LIeD8Hyq-38" value="- MAX_TEXT_LENGHT: Int" style="text;strokeColor=none;fillColor=none;align=left;verticalAlign=top;spacingLeft=4;spacingRight=4;overflow=hidden;rotatable=0;points=[[0,0.5],[1,0.5]];portConstraint=eastwest;whiteSpace=wrap;html=1;" vertex="1" parent="1km-yz8pUTd3LIeD8Hyq-33">
          <mxGeometry y="78" width="230" height="26" as="geometry" />
        </mxCell>
        <mxCell id="1km-yz8pUTd3LIeD8Hyq-35" value="" style="line;strokeWidth=1;fillColor=none;align=left;verticalAlign=middle;spacingTop=-1;spacingLeft=3;spacingRight=3;rotatable=0;labelPosition=right;points=[];portConstraint=eastwest;strokeColor=inherit;" vertex="1" parent="1km-yz8pUTd3LIeD8Hyq-33">
          <mxGeometry y="104" width="230" height="8" as="geometry" />
        </mxCell>
        <mxCell id="1km-yz8pUTd3LIeD8Hyq-57" value="&lt;div&gt;+ checkTextLenght(String): Boolean&lt;/div&gt;" style="text;strokeColor=none;fillColor=none;align=left;verticalAlign=top;spacingLeft=4;spacingRight=4;overflow=hidden;rotatable=0;points=[[0,0.5],[1,0.5]];portConstraint=eastwest;whiteSpace=wrap;html=1;" vertex="1" parent="1km-yz8pUTd3LIeD8Hyq-33">
          <mxGeometry y="112" width="230" height="26" as="geometry" />
        </mxCell>
        <mxCell id="1km-yz8pUTd3LIeD8Hyq-58" value="&lt;div&gt;+ checkInvalidChar(String): Boolean&lt;/div&gt;" style="text;strokeColor=none;fillColor=none;align=left;verticalAlign=top;spacingLeft=4;spacingRight=4;overflow=hidden;rotatable=0;points=[[0,0.5],[1,0.5]];portConstraint=eastwest;whiteSpace=wrap;html=1;" vertex="1" parent="1km-yz8pUTd3LIeD8Hyq-33">
          <mxGeometry y="138" width="230" height="26" as="geometry" />
        </mxCell>
        <mxCell id="1km-yz8pUTd3LIeD8Hyq-40" value="PasswordValidation" style="swimlane;fontStyle=1;align=center;verticalAlign=top;childLayout=stackLayout;horizontal=1;startSize=26;horizontalStack=0;resizeParent=1;resizeParentMax=0;resizeLast=0;collapsible=1;marginBottom=0;whiteSpace=wrap;html=1;" vertex="1" parent="1">
          <mxGeometry x="34" y="860" width="238" height="164" as="geometry" />
        </mxCell>
        <mxCell id="1km-yz8pUTd3LIeD8Hyq-41" value="- MIN_PASS_LENGHT: Int" style="text;strokeColor=none;fillColor=none;align=left;verticalAlign=top;spacingLeft=4;spacingRight=4;overflow=hidden;rotatable=0;points=[[0,0.5],[1,0.5]];portConstraint=eastwest;whiteSpace=wrap;html=1;" vertex="1" parent="1km-yz8pUTd3LIeD8Hyq-40">
          <mxGeometry y="26" width="238" height="26" as="geometry" />
        </mxCell>
        <mxCell id="1km-yz8pUTd3LIeD8Hyq-53" value="- password: String" style="text;strokeColor=none;fillColor=none;align=left;verticalAlign=top;spacingLeft=4;spacingRight=4;overflow=hidden;rotatable=0;points=[[0,0.5],[1,0.5]];portConstraint=eastwest;whiteSpace=wrap;html=1;" vertex="1" parent="1km-yz8pUTd3LIeD8Hyq-40">
          <mxGeometry y="52" width="238" height="26" as="geometry" />
        </mxCell>
        <mxCell id="1km-yz8pUTd3LIeD8Hyq-52" value="- passwordHash: String" style="text;strokeColor=none;fillColor=none;align=left;verticalAlign=top;spacingLeft=4;spacingRight=4;overflow=hidden;rotatable=0;points=[[0,0.5],[1,0.5]];portConstraint=eastwest;whiteSpace=wrap;html=1;" vertex="1" parent="1km-yz8pUTd3LIeD8Hyq-40">
          <mxGeometry y="78" width="238" height="26" as="geometry" />
        </mxCell>
        <mxCell id="1km-yz8pUTd3LIeD8Hyq-42" value="" style="line;strokeWidth=1;fillColor=none;align=left;verticalAlign=middle;spacingTop=-1;spacingLeft=3;spacingRight=3;rotatable=0;labelPosition=right;points=[];portConstraint=eastwest;strokeColor=inherit;" vertex="1" parent="1km-yz8pUTd3LIeD8Hyq-40">
          <mxGeometry y="104" width="238" height="8" as="geometry" />
        </mxCell>
        <mxCell id="1km-yz8pUTd3LIeD8Hyq-43" value="&lt;div&gt;+ validatePassword(String): Boolean&lt;/div&gt;" style="text;strokeColor=none;fillColor=none;align=left;verticalAlign=top;spacingLeft=4;spacingRight=4;overflow=hidden;rotatable=0;points=[[0,0.5],[1,0.5]];portConstraint=eastwest;whiteSpace=wrap;html=1;" vertex="1" parent="1km-yz8pUTd3LIeD8Hyq-40">
          <mxGeometry y="112" width="238" height="26" as="geometry" />
        </mxCell>
        <mxCell id="1km-yz8pUTd3LIeD8Hyq-54" value="&lt;div&gt;+ stringToHash(String): String&lt;br&gt;&lt;/div&gt;" style="text;strokeColor=none;fillColor=none;align=left;verticalAlign=top;spacingLeft=4;spacingRight=4;overflow=hidden;rotatable=0;points=[[0,0.5],[1,0.5]];portConstraint=eastwest;whiteSpace=wrap;html=1;" vertex="1" parent="1km-yz8pUTd3LIeD8Hyq-40">
          <mxGeometry y="138" width="238" height="26" as="geometry" />
        </mxCell>
        <mxCell id="1km-yz8pUTd3LIeD8Hyq-45" value="Extends" style="endArrow=block;endSize=16;endFill=0;html=1;rounded=0;entryX=0;entryY=1;entryDx=0;entryDy=0;exitX=0.5;exitY=0;exitDx=0;exitDy=0;" edge="1" parent="1" source="1km-yz8pUTd3LIeD8Hyq-40" target="1km-yz8pUTd3LIeD8Hyq-33">
          <mxGeometry width="160" relative="1" as="geometry">
            <mxPoint x="130" y="610" as="sourcePoint" />
            <mxPoint x="290" y="610" as="targetPoint" />
          </mxGeometry>
        </mxCell>
        <mxCell id="1km-yz8pUTd3LIeD8Hyq-46" value="EmailValidation" style="swimlane;fontStyle=1;align=center;verticalAlign=top;childLayout=stackLayout;horizontal=1;startSize=26;horizontalStack=0;resizeParent=1;resizeParentMax=0;resizeLast=0;collapsible=1;marginBottom=0;whiteSpace=wrap;html=1;" vertex="1" parent="1">
          <mxGeometry x="564" y="860" width="226" height="112" as="geometry" />
        </mxCell>
        <mxCell id="1km-yz8pUTd3LIeD8Hyq-55" value="- MIN_EMAIL_LENGHT: Int" style="text;strokeColor=none;fillColor=none;align=left;verticalAlign=top;spacingLeft=4;spacingRight=4;overflow=hidden;rotatable=0;points=[[0,0.5],[1,0.5]];portConstraint=eastwest;whiteSpace=wrap;html=1;" vertex="1" parent="1km-yz8pUTd3LIeD8Hyq-46">
          <mxGeometry y="26" width="226" height="26" as="geometry" />
        </mxCell>
        <mxCell id="1km-yz8pUTd3LIeD8Hyq-51" value="- MAX_EMAIL_LENGHT: Int" style="text;strokeColor=none;fillColor=none;align=left;verticalAlign=top;spacingLeft=4;spacingRight=4;overflow=hidden;rotatable=0;points=[[0,0.5],[1,0.5]];portConstraint=eastwest;whiteSpace=wrap;html=1;" vertex="1" parent="1km-yz8pUTd3LIeD8Hyq-46">
          <mxGeometry y="52" width="226" height="26" as="geometry" />
        </mxCell>
        <mxCell id="1km-yz8pUTd3LIeD8Hyq-48" value="" style="line;strokeWidth=1;fillColor=none;align=left;verticalAlign=middle;spacingTop=-1;spacingLeft=3;spacingRight=3;rotatable=0;labelPosition=right;points=[];portConstraint=eastwest;strokeColor=inherit;" vertex="1" parent="1km-yz8pUTd3LIeD8Hyq-46">
          <mxGeometry y="78" width="226" height="8" as="geometry" />
        </mxCell>
        <mxCell id="1km-yz8pUTd3LIeD8Hyq-56" value="&lt;div&gt;+ validateEmail(String): Boolean&lt;/div&gt;" style="text;strokeColor=none;fillColor=none;align=left;verticalAlign=top;spacingLeft=4;spacingRight=4;overflow=hidden;rotatable=0;points=[[0,0.5],[1,0.5]];portConstraint=eastwest;whiteSpace=wrap;html=1;" vertex="1" parent="1km-yz8pUTd3LIeD8Hyq-46">
          <mxGeometry y="86" width="226" height="26" as="geometry" />
        </mxCell>
        <mxCell id="1km-yz8pUTd3LIeD8Hyq-50" value="Extends" style="endArrow=block;endSize=16;endFill=0;html=1;rounded=0;entryX=1;entryY=1;entryDx=0;entryDy=0;exitX=0.5;exitY=0;exitDx=0;exitDy=0;" edge="1" parent="1" source="1km-yz8pUTd3LIeD8Hyq-46" target="1km-yz8pUTd3LIeD8Hyq-33">
          <mxGeometry width="160" relative="1" as="geometry">
            <mxPoint x="590" y="715" as="sourcePoint" />
            <mxPoint x="698" y="580" as="targetPoint" />
          </mxGeometry>
        </mxCell>
      </root>
    </mxGraphModel>
  </diagram>
</mxfile>
